<svg xmlns="http://www.w3.org/2000/svg" version="1.1" xmlns:xlink="http://www.w3.org/1999/xlink" xmlns:svgjs="http://svgjs.dev/svgjs" width="1440" height="560" preserveAspectRatio="none" viewBox="0 0 1440 560">
    <g mask="url(&quot;#SvgjsMask1006&quot;)" fill="none">
        <rect width="1440" height="560" x="0" y="0" fill="rgba(20, 16, 37, 1)"></rect>
        <path d="M0,590.075C117.167,584.587,241.796,593.144,339.041,527.558C435.548,462.471,495.107,351.572,521.673,238.24C545.749,135.534,509.834,31.988,478.846,-68.848C451.991,-156.237,401.77,-228.834,354.155,-306.877C296.245,-401.794,265.921,-521.441,169.226,-576.331C65.737,-635.078,-72.872,-663.408,-178.969,-609.512C-284.846,-555.728,-293.267,-409.491,-356.761,-309.135C-408.513,-227.338,-482.609,-164.686,-517.522,-74.408C-559.74,34.761,-606.653,150.575,-578.474,264.18C-548.336,385.681,-469.15,498.858,-360.084,560.302C-252.984,620.639,-122.792,595.826,0,590.075" fill="#100d1e"></path>
        <path d="M1440 1084.2240000000002C1537.778 1082.8200000000002 1622.902 1025.451 1704.281 971.229 1784.484 917.7909999999999 1859.441 857.115 1906.816 773.188 1956.988 684.306 1992.563 583.643 1980.257 482.323 1967.829 379.993 1909.571 289.398 1838.94 214.317 1770.222 141.27100000000002 1683.445 86.40899999999999 1585.897 63.12099999999998 1491.244 40.524 1394.46 59.51999999999998 1300.774 85.839 1206.137 112.42500000000001 1120.5439999999999 155.716 1042.685 215.72500000000002 949.017 287.918 808.829 350.414 804.179 468.58299999999997 799.41 589.772 950.8530000000001 652.5699999999999 1021.617 751.069 1075.674 826.313 1098.319 921.1759999999999 1170.797 978.889 1247.7350000000001 1040.154 1341.659 1085.636 1440 1084.2240000000002" fill="#18132c"></path>
    </g>
    <defs>
        <mask id="SvgjsMask1006">
            <rect width="1440" height="560" fill="#ffffff"></rect>
        </mask>
    </defs>
</svg>